<svg width="135" height="158" viewBox="0 0 135 158" fill="none" xmlns="http://www.w3.org/2000/svg">
<path d="M205.737 142.808C205.735 142.778 205.735 142.749 205.732 142.719C205.722 142.6 205.704 142.484 205.68 142.37C205.678 142.358 205.674 142.347 205.671 142.336C205.648 142.231 205.618 142.129 205.584 142.029C205.575 142.002 205.565 141.976 205.555 141.95C205.521 141.859 205.483 141.77 205.441 141.684C205.434 141.669 205.429 141.654 205.422 141.638L189.376 109.99V5.86546C189.376 2.66293 186.771 0.0576172 183.568 0.0576172H23.1152C19.9127 0.0576172 17.3074 2.66293 17.3074 5.86546V109.989L1.26228 141.638C1.25468 141.653 1.24988 141.669 1.24268 141.684C1.20068 141.77 1.16308 141.858 1.12907 141.949C1.11907 141.975 1.10907 142.002 1.09987 142.028C1.06587 142.129 1.03627 142.232 1.01267 142.336C1.01027 142.347 1.00667 142.358 1.00427 142.369C0.979868 142.483 0.962667 142.6 0.951867 142.718C0.949067 142.748 0.949067 142.778 0.947467 142.808C0.943466 142.87 0.937866 142.932 0.937866 142.995V150.605C0.937866 154.409 4.032 157.503 7.83575 157.503H198.849C202.652 157.503 205.746 154.409 205.746 150.605V142.995C205.746 142.932 205.741 142.87 205.737 142.808ZM23.308 6.05867H183.376V107.707H23.308V6.05867ZM22.1504 113.706H184.534L197.861 139.994H131.947L128.638 127.998C127.964 125.556 125.725 123.85 123.192 123.85H83.4917C80.9584 123.85 78.7187 125.556 78.0455 127.998L74.7369 139.994H8.8226L22.1504 113.706ZM125.722 139.995H80.962L83.7593 129.851H122.925L125.722 139.995ZM199.746 150.605C199.746 151.1 199.343 151.503 198.849 151.503H7.83575C7.34093 151.503 6.93812 151.1 6.93812 150.605V145.995H199.746V150.605Z" fill="#234EB0"/>
<path d="M173.976 61.8824C172.319 61.8824 170.976 63.2252 170.976 64.8825V95.3058H35.7085V64.8825C35.7085 63.2252 34.3656 61.8824 32.7084 61.8824C31.0511 61.8824 29.7083 63.2252 29.7083 64.8825V96.6014C29.7083 99.1955 31.8183 101.306 34.4128 101.306H172.272C174.866 101.306 176.976 99.1959 176.976 96.6014V64.8825C176.976 63.226 175.633 61.8824 173.976 61.8824Z" fill="#234EB0"/>
<path d="M172.271 12.459H34.4128C31.8187 12.459 29.7083 14.5691 29.7083 17.1636V48.8825C29.7083 50.5398 31.0511 51.8826 32.7084 51.8826C34.3656 51.8826 35.7085 50.5398 35.7085 48.8825V18.4592H170.976V48.8825C170.976 50.5398 172.319 51.8826 173.976 51.8826C175.633 51.8826 176.976 50.5398 176.976 48.8825V17.1636C176.976 14.5687 174.866 12.459 172.271 12.459Z" fill="#234EB0"/>
</svg>
