<svg width="154" height="148" viewBox="0 0 154 148" fill="none" xmlns="http://www.w3.org/2000/svg">
<path d="M153.724 97.7269C152.594 87.376 143.949 77.1071 133.941 71.8575C143.172 68.4106 149.68 61.4706 151.731 55.0725C152.204 53.5964 151.342 52.0294 149.851 51.6317C143.512 49.9395 134.269 51.5188 126.304 57.3929C127.071 47.6771 123.643 39.1593 119.021 34.7057C117.899 33.6254 116.115 33.717 115.104 34.8752C111.982 38.4538 109.992 43.7319 109.481 49.5242C101.628 42.6971 92.9111 40.0007 86.3535 40.3824C84.8125 40.4741 83.6557 41.8376 83.8234 43.378C84.3842 48.5124 86.915 53.967 90.8638 58.8157C84.6158 59.411 79.0105 61.4518 74.931 64.7003C73.7183 65.6662 73.5664 67.4476 74.5857 68.6058C81.2988 76.2285 93.8077 79.6494 104.728 78.4872C94.411 89.5168 83.8141 107.06 73.2211 130.635C70.4359 131.167 67.693 131.91 65.007 132.865C63.6193 132.037 62.2053 131.255 60.7638 130.525C58.273 118.863 55.5207 108.037 52.5764 98.3338C52.1423 96.9031 50.6309 96.0949 49.2013 96.53C47.771 96.9641 46.9635 98.4752 47.3976 99.9052C49.9702 108.384 52.3971 117.74 54.6284 127.781C50.7647 126.271 46.7539 125.1 42.6369 124.289C41.7569 105.698 39.3664 83.258 33.4753 64.9023C36.7642 70.9923 40.3948 79.058 44.086 89.695C44.576 91.1073 46.1181 91.8534 47.5296 91.3645C48.9415 90.8745 49.6888 89.3324 49.1988 87.9205C44.7286 75.04 39.8994 64.4668 34.7981 56.3718C48.1051 61.3692 65.2903 60.7738 75.8692 52.9523C77.1111 52.0344 77.3352 50.2603 76.3541 49.062C72.0297 43.781 65.2704 39.6882 57.2747 37.393C63.8784 32.3989 68.7873 26.1142 70.9209 19.6952C71.4069 18.2328 70.5738 16.6509 69.0785 16.2345C60.9962 13.9859 49.0844 15.1416 37.3743 22.0087C38.5954 14.3727 37.6327 6.90517 34.6141 1.4474C33.8672 0.0964917 32.1374 -0.359225 30.8208 0.45695C23.5939 4.93437 17.1136 15.2268 15.9405 27.6307C7.94619 17.8185 -3.44057 12.8446 -12.0876 13.2607C-13.6298 13.3357 -14.801 14.687 -14.6495 16.2288C-13.9318 23.526 -9.3086 31.503 -2.28271 37.5673C-0.308657 39.2711 1.78879 40.7591 3.94469 42.0191C-10.268 45.4401 -24.2841 56.0092 -28.4884 68.6581C-28.9751 70.123 -28.1384 71.7031 -26.646 72.1188C-16.9255 74.8238 -5.3255 72.0715 3.75599 67.0831C1.30602 77.097 1.6174 89.1376 6.83992 97.9077C7.63083 99.2369 9.37504 99.6327 10.6628 98.7769C19.355 93.0005 26.8521 80.0795 27.7798 64.8738C32.097 77.5679 35.8178 96.1822 37.1748 123.438C10.0436 120.271 -15.9964 132.725 -30.5728 155.598C-31.7191 157.398 -30.4234 159.759 -28.2906 159.759H-1.13999C0.35453 159.759 1.56617 158.548 1.56617 157.053C1.56617 155.558 0.35453 154.347 -1.13999 154.347H-23.1284C2.79007 119.794 54.7139 119.622 80.903 154.347H9.68571C8.19119 154.347 6.97955 155.558 6.97955 157.053C6.97955 158.548 8.19119 159.759 9.68571 159.759C13.0897 159.759 125.799 159.759 128.76 159.759C130.893 159.759 132.189 157.397 131.042 155.598C127.66 150.291 123.435 145.615 118.485 141.7C117.314 140.773 115.611 140.971 114.684 142.143C113.757 143.316 113.956 145.018 115.128 145.945C118.26 148.421 121.071 151.235 123.523 154.346H87.5446C83.1119 147.71 77.5004 141.695 70.8022 136.731C82.1482 133.726 94.8732 134.65 106.294 140.338C107.631 141.005 109.256 140.461 109.922 139.123C110.589 137.785 110.045 136.16 108.707 135.494C103.838 133.069 98.7383 131.39 93.4628 130.471C96.6448 118.472 101.963 101.516 109.367 88.1799C109.26 89.4713 109.205 90.7793 109.22 92.1003C109.324 101.241 112.395 109.789 117.435 114.965C118.52 116.078 120.307 116.048 121.356 114.921C126.181 109.734 129.032 101.348 129.043 92.4055C135.514 97.6973 143.177 100.759 149.918 100.759C151.204 100.759 152.241 100.783 153.101 99.7662C153.58 99.2008 153.805 98.4633 153.724 97.7269ZM1.25406 33.4695C-3.72202 29.1746 -7.27501 23.8717 -8.6768 18.7935C1.3955 20.0358 13.488 29.1432 17.1399 40.9926C16.6059 40.937 16.0657 40.8948 15.5198 40.8652C10.7642 39.8928 5.69539 37.3028 1.25406 33.4695ZM-22.183 67.5215C-16.1894 55.2785 0.747828 45.6165 14.9021 46.2436C15.7085 46.3962 16.5088 46.5121 17.3005 46.5886C10.8154 59.6196 -7.82526 69.501 -22.183 67.5215ZM10.1039 92.3943C6.28209 83.4236 7.25233 71.6435 10.9233 62.3434C14.8177 59.2627 18.3865 55.4582 20.9487 51.1829C25.1775 64.6664 20.3064 83.4294 10.1039 92.3943ZM22.5179 40.0296C22.3498 39.3945 22.1567 38.758 21.9363 38.1212C19.3535 27.6935 23.412 13.8167 31.1516 6.94702C32.8782 11.9238 32.9604 18.306 31.2996 24.6662V24.6665C29.8249 30.3148 26.8579 36.1619 22.5179 40.0296ZM35.1766 30.3036C35.2058 30.2261 35.2357 30.1489 35.2646 30.0709C35.287 30.0107 35.3104 29.9515 35.3325 29.8912C43.4224 23.6671 54.8048 19.479 64.6163 20.831C58.6746 32.9676 42.0913 42.4665 28.085 42.1234C30.8251 39.1419 33.3696 35.0989 35.1766 30.3036ZM50.9466 41.4837C58.6025 42.8259 65.4801 46.0058 70.056 50.2545C58.7241 56.4768 40.6271 55.1501 29.1862 47.5317C36.6484 47.4462 44.4334 45.0634 50.9466 41.4837ZM88.04 129.804C85.0838 129.583 82.2081 129.594 79.5474 129.798C85.4208 117.049 93.4296 101.628 102.419 89.6972C96.1213 102.217 91.3855 117.031 88.04 129.804ZM145.218 56.3953C140.589 64.2164 129.281 69.1589 123.345 68.3135C126.341 62.4852 136.386 56.0662 145.218 56.3953ZM117.337 41.1333C121.874 48.0621 122.155 59.419 118.402 66.0552C113.97 59.2403 113.539 48.1989 117.337 41.1333ZM80.9441 67.2019C84.9856 65.0149 90.3496 63.8791 95.9932 64.067C99.9211 67.4465 104.899 70.3738 110.128 71.9023C106.297 73.1052 88.1699 72.9743 80.9441 67.2019ZM89.8297 45.8846C97.2597 46.7441 104.778 51.635 109.695 57.3828C110.156 60.5941 111.171 64.0447 112.71 67.0066C102.633 64.5491 92.5856 55.3561 89.8297 45.8846ZM119.325 108.739C113.725 100.511 113.066 86.7287 117.717 77.3972C118.868 80.3372 120.702 83.5394 123.181 86.5703C124.372 93.9834 123.273 102.643 119.325 108.739ZM122.165 73.7147C132.143 74.4745 144.577 84.4213 147.718 95.2199C137.054 93.9855 125.29 84.1875 122.165 73.7147Z" fill="#234EB0"/>
</svg>
