<svg width="21" height="21" viewBox="0 0 21 21" fill="none" xmlns="http://www.w3.org/2000/svg">
<path d="M12.6403 10.5168L19.8001 3.37374C20.1136 3.06021 20.2898 2.63496 20.2898 2.19155C20.2898 1.74815 20.1136 1.3229 19.8001 1.00936C19.4865 0.695827 19.0613 0.519684 18.6179 0.519684C18.1745 0.519684 17.7492 0.695827 17.4357 1.00936L10.2926 8.16911L3.14951 1.00936C2.83597 0.695827 2.41072 0.519684 1.96731 0.519684C1.52391 0.519684 1.09866 0.695827 0.785124 1.00936C0.471587 1.3229 0.295444 1.74815 0.295444 2.19155C0.295444 2.63496 0.471587 3.06021 0.785124 3.37374L7.94487 10.5168L0.785124 17.6599C0.629061 17.8147 0.50519 17.9989 0.420657 18.2018C0.336125 18.4047 0.292603 18.6223 0.292603 18.8421C0.292603 19.0619 0.336125 19.2796 0.420657 19.4825C0.50519 19.6854 0.629061 19.8695 0.785124 20.0243C0.939912 20.1804 1.12407 20.3043 1.32697 20.3888C1.52987 20.4733 1.74751 20.5168 1.96731 20.5168C2.18712 20.5168 2.40475 20.4733 2.60766 20.3888C2.81056 20.3043 2.99472 20.1804 3.14951 20.0243L10.2926 12.8646L17.4357 20.0243C17.5905 20.1804 17.7746 20.3043 17.9775 20.3888C18.1805 20.4733 18.3981 20.5168 18.6179 20.5168C18.8377 20.5168 19.0553 20.4733 19.2582 20.3888C19.4611 20.3043 19.6453 20.1804 19.8001 20.0243C19.9561 19.8695 20.08 19.6854 20.1645 19.4825C20.2491 19.2796 20.2926 19.0619 20.2926 18.8421C20.2926 18.6223 20.2491 18.4047 20.1645 18.2018C20.08 17.9989 19.9561 17.8147 19.8001 17.6599L12.6403 10.5168Z" fill="black"/>
</svg>
