<svg width="24" height="24" viewBox="0 0 24 24" fill="none" xmlns="http://www.w3.org/2000/svg">
<path d="M17.0708 2.40322C18.3313 2.40698 19.5391 2.90937 20.4304 3.80066C21.3217 4.69195 21.824 5.89972 21.8278 7.16019V16.6731C21.824 17.9336 21.3217 19.1414 20.4304 20.0327C19.5391 20.924 18.3313 21.4263 17.0708 21.4301H7.5579C6.29743 21.4263 5.08966 20.924 4.19837 20.0327C3.30708 19.1414 2.80469 17.9336 2.80092 16.6731V7.16019C2.80469 5.89972 3.30708 4.69195 4.19837 3.80066C5.08966 2.90937 6.29743 2.40698 7.5579 2.40322H17.0708ZM17.0708 0.500732H7.5579C3.89512 0.500732 0.898438 3.49741 0.898438 7.16019V16.6731C0.898438 20.3359 3.89512 23.3326 7.5579 23.3326H17.0708C20.7336 23.3326 23.7303 20.3359 23.7303 16.6731V7.16019C23.7303 3.49741 20.7336 0.500732 17.0708 0.500732Z" fill="#4A4A4A"/>
<path d="M18.498 7.16001C18.2158 7.16001 17.9399 7.07632 17.7052 6.91952C17.4705 6.76272 17.2876 6.53986 17.1796 6.27911C17.0716 6.01836 17.0434 5.73144 17.0984 5.45463C17.1535 5.17782 17.2894 4.92356 17.489 4.72399C17.6885 4.52442 17.9428 4.38851 18.2196 4.33345C18.4964 4.27839 18.7833 4.30665 19.0441 4.41465C19.3048 4.52266 19.5277 4.70556 19.6845 4.94023C19.8413 5.1749 19.925 5.45079 19.925 5.73302C19.9254 5.92053 19.8888 6.10627 19.8172 6.27958C19.7456 6.4529 19.6405 6.61037 19.5079 6.74296C19.3754 6.87555 19.2179 6.98064 19.0446 7.05221C18.8713 7.12378 18.6855 7.16042 18.498 7.16001Z" fill="#4A4A4A"/>
<path d="M12.3144 8.11123C13.067 8.11123 13.8028 8.33441 14.4286 8.75256C15.0544 9.17072 15.5422 9.76505 15.8302 10.4604C16.1182 11.1558 16.1936 11.9209 16.0467 12.6591C15.8999 13.3973 15.5375 14.0754 15.0053 14.6076C14.4731 15.1398 13.795 15.5022 13.0568 15.6491C12.3186 15.7959 11.5534 15.7205 10.8581 15.4325C10.1627 15.1445 9.56839 14.6567 9.15024 14.0309C8.73209 13.4051 8.5089 12.6694 8.5089 11.9167C8.50998 10.9078 8.91126 9.94045 9.62469 9.22702C10.3381 8.51358 11.3054 8.1123 12.3144 8.11123ZM12.3144 6.20874C11.1855 6.20874 10.0819 6.54351 9.14321 7.17071C8.20454 7.7979 7.47293 8.68937 7.04091 9.73236C6.60889 10.7754 6.49585 11.923 6.71609 13.0303C6.93634 14.1375 7.47997 15.1546 8.27824 15.9528C9.07651 16.7511 10.0936 17.2948 11.2008 17.515C12.3081 17.7352 13.4557 17.6222 14.4987 17.1902C15.5417 16.7582 16.4332 16.0266 17.0604 15.0879C17.6876 14.1492 18.0223 13.0456 18.0223 11.9167C18.0223 10.4029 17.421 8.95102 16.3505 7.88056C15.2801 6.81011 13.8282 6.20874 12.3144 6.20874Z" fill="#4A4A4A"/>
</svg>
