<svg width="15" height="20" viewBox="0 0 15 20" fill="none" xmlns="http://www.w3.org/2000/svg">
<path d="M8.14123 19.2656C13.2687 11.1819 14.2205 10.3523 14.2205 7.38136C14.2205 3.31188 11.1869 0.0129395 7.4449 0.0129395C3.70285 0.0129395 0.669335 3.31188 0.669335 7.38136C0.669335 10.3523 1.62109 11.1819 6.74857 19.2656C7.08505 19.7942 7.80478 19.7942 8.14123 19.2656ZM7.4449 10.4515C5.88571 10.4515 4.62175 9.07698 4.62175 7.38136C4.62175 5.68574 5.88571 4.31119 7.4449 4.31119C9.00409 4.31119 10.268 5.68574 10.268 7.38136C10.268 9.07698 9.00409 10.4515 7.4449 10.4515Z" fill="#145CE6"/>
</svg>
