<svg width="15" height="18" viewBox="0 0 15 18" fill="none" xmlns="http://www.w3.org/2000/svg">
<path d="M0.943759 12.306L4.05634 10.7815C4.1893 10.7167 4.33708 10.7031 4.47742 10.7426C4.61776 10.7821 4.74307 10.8727 4.83448 11.0007L6.21291 12.9254C8.37622 11.7597 10.1172 9.77 11.1372 7.29764L9.45305 5.72229C9.34086 5.61801 9.26146 5.4748 9.22686 5.31434C9.19226 5.15387 9.20435 4.98489 9.26129 4.83298L10.5953 1.27575C10.6578 1.11199 10.7683 0.978291 10.9078 0.897698C11.0473 0.817106 11.2071 0.794674 11.3595 0.834272L14.2498 1.59654C14.3967 1.63532 14.5278 1.72989 14.6217 1.86482C14.7156 1.99974 14.7667 2.16704 14.7667 2.33943C14.7667 10.4861 8.98894 17.0765 1.8717 17.0765C1.72081 17.0766 1.57436 17.0183 1.45624 16.911C1.33813 16.8037 1.25534 16.6538 1.22139 16.4858L0.55441 13.1826C0.519985 13.0076 0.540029 12.8243 0.611092 12.6643C0.682155 12.5043 0.799791 12.3776 0.943759 12.306Z" fill="#145CE6"/>
</svg>
