<svg width="24" height="24" viewBox="0 0 24 24" fill="none" xmlns="http://www.w3.org/2000/svg">
<path d="M22.6288 0.67749H2.16806C1.83138 0.677626 1.50852 0.811433 1.27045 1.0495C1.03238 1.28757 0.898574 1.61043 0.898438 1.94711V22.4079C0.898574 22.7446 1.03238 23.0674 1.27045 23.3055C1.50852 23.5435 1.83138 23.6774 2.16806 23.6775H12.3984V14.6418H9.64922V11.3561H12.3984V8.73776C12.3984 5.76727 14.4587 4.15008 17.1124 4.15008C18.382 4.15008 19.7477 4.24557 20.0649 4.28767V7.3901H17.9508C16.5071 7.3901 16.2319 8.07291 16.2319 9.07916V11.3561H19.6717L19.2225 14.6418H16.2319V23.6775H22.6288C22.9655 23.6774 23.2884 23.5435 23.5264 23.3055C23.7645 23.0674 23.8983 22.7446 23.8984 22.4079V1.94711C23.8983 1.61043 23.7645 1.28757 23.5264 1.0495C23.2884 0.811433 22.9655 0.677626 22.6288 0.67749Z" fill="#4A4A4A"/>
</svg>
