<svg width="24" height="24" viewBox="0 0 24 24" fill="none" xmlns="http://www.w3.org/2000/svg">
<path d="M23.5392 1.0383C23.3713 0.870348 23.1583 0.754536 22.9261 0.704801C22.6938 0.655067 22.4521 0.67353 22.2301 0.75797L1.69239 8.53163H1.68828C1.45148 8.62271 1.24857 8.78467 1.10726 8.9954C0.965944 9.20612 0.893123 9.45533 0.89874 9.70898C0.904356 9.96264 0.988137 10.2084 1.13864 10.4126C1.28914 10.6169 1.49902 10.7697 1.73962 10.8502L1.76067 10.8569L8.8097 13.8671C8.94719 13.9088 9.09322 13.9138 9.23322 13.8814C9.37322 13.8491 9.50228 13.7806 9.60753 13.6828L20.9209 3.14074C20.9546 3.10703 20.9946 3.08029 21.0387 3.06205C21.0827 3.0438 21.1299 3.03441 21.1776 3.03441C21.2253 3.03441 21.2725 3.0438 21.3165 3.06205C21.3606 3.08029 21.4006 3.10703 21.4343 3.14074C21.468 3.17445 21.4947 3.21448 21.513 3.25852C21.5312 3.30257 21.5406 3.34978 21.5406 3.39745C21.5406 3.44513 21.5312 3.49234 21.513 3.53638C21.4947 3.58043 21.468 3.62045 21.4343 3.65416L10.8921 14.9627C10.7943 15.068 10.7258 15.197 10.6934 15.337C10.6611 15.477 10.666 15.6231 10.7078 15.7606L13.7189 22.8139C13.7219 22.8242 13.725 22.8334 13.7286 22.8432C13.8929 23.3191 14.3088 23.6549 14.8114 23.6775H14.8627C15.1165 23.6789 15.3648 23.604 15.5754 23.4624C15.786 23.3209 15.9491 23.1192 16.0436 22.8837L23.816 2.35111C23.9016 2.12894 23.9211 1.88672 23.8719 1.65374C23.8228 1.42075 23.7073 1.20699 23.5392 1.0383Z" fill="#145CE6"/>
</svg>
