<svg width="19" height="14" viewBox="0 0 19 14" fill="none" xmlns="http://www.w3.org/2000/svg">
<path d="M0.851885 4.72386C0.712536 4.61993 0.505299 4.71715 0.505299 4.88143V11.7373C0.505299 12.6257 1.2735 13.3465 2.22036 13.3465H17.0843C18.0311 13.3465 18.7993 12.6257 18.7993 11.7373V4.88478C18.7993 4.71716 18.5957 4.62329 18.4527 4.72721C17.6524 5.31055 16.5912 6.05145 12.9467 8.53564C12.1927 9.05193 10.9207 10.1381 9.65231 10.1314C8.37673 10.1415 7.07971 9.03181 6.35438 8.53564C2.70987 6.05145 1.65225 5.30719 0.851885 4.72386ZM9.65231 9.05528C8.82336 9.06869 7.62996 8.07635 7.02969 7.66735C2.28825 4.4389 1.92737 4.15729 0.834021 3.35269C0.626783 3.20183 0.505299 2.96715 0.505299 2.71907V2.0821C0.505299 1.19369 1.2735 0.4729 2.22036 0.4729H17.0843C18.0311 0.4729 18.7993 1.19369 18.7993 2.0821V2.71907C18.7993 2.96715 18.6778 3.19848 18.4706 3.35269C17.3772 4.15394 17.0164 4.4389 12.2749 7.66735C11.6747 8.07635 10.4813 9.06869 9.65231 9.05528Z" fill="#145CE6"/>
</svg>
