<svg width="24" height="25" viewBox="0 0 24 25" fill="none" xmlns="http://www.w3.org/2000/svg">
<path d="M7.16614 24.3651L9.38771 24.3651L16.791 14.9865L21.4803 14.9865C22.1022 14.9865 22.6986 14.7394 23.1383 14.2997C23.578 13.86 23.825 13.2636 23.825 12.6418C23.825 12.02 23.578 11.4236 23.1383 10.9839C22.6986 10.5442 22.1022 10.2971 21.4803 10.2971L16.6679 10.2971L9.26462 0.918456L7.16731 0.918456L10.4616 10.2971L5.06766 10.2971L2.72299 6.78013L0.37832 6.78013L2.72299 12.6418L0.37832 18.5035L2.72299 18.5035L5.06766 14.9865L10.56 14.9865L7.16614 24.3651Z" fill="white"/>
</svg>
