<svg width="11" height="11" viewBox="0 0 11 11" fill="none" xmlns="http://www.w3.org/2000/svg">
<path d="M8.6319 7.43884C8.52659 7.43884 8.42588 7.4515 8.32575 7.46992L3.42168 2.56585C3.4401 2.4663 3.45276 2.36444 3.45276 2.2597C3.45276 1.30789 2.67819 0.533325 1.72638 0.533325C0.774569 0.533325 0 1.30789 0 2.2597C0 3.00895 0.482811 3.64138 1.15092 3.87962V7.54473C0.81534 7.6631 0.524592 7.88239 0.318541 8.17251C0.11249 8.46263 0.0012243 8.80938 0 9.16522C0 10.117 0.774569 10.8916 1.72638 10.8916C2.08221 10.8906 2.42899 10.7794 2.71906 10.5733C3.00913 10.3672 3.22825 10.0764 3.3463 9.74068H7.0114C7.12953 10.0763 7.34867 10.3671 7.63872 10.5732C7.92878 10.7793 8.27552 10.8905 8.63132 10.8916C9.58313 10.8916 10.3577 10.117 10.3577 9.16522C10.3577 8.21341 9.58371 7.43884 8.6319 7.43884ZM2.30184 7.54473V3.8802C2.49117 3.8123 2.6638 3.71274 2.8163 3.58787L7.30431 8.07588C7.17761 8.229 7.07867 8.40312 7.01198 8.59034H3.3463C3.26082 8.34941 3.12272 8.13055 2.94205 7.94968C2.76138 7.76881 2.54268 7.63048 2.30184 7.54473ZM1.72638 1.68424C1.84036 1.68413 1.95181 1.71783 2.04662 1.78108C2.14144 1.84434 2.21536 1.9343 2.25903 2.03958C2.3027 2.14486 2.31416 2.26072 2.29195 2.37252C2.26974 2.48431 2.21487 2.587 2.13427 2.6676C2.05368 2.74819 1.95099 2.80307 1.83919 2.82528C1.7274 2.84748 1.61153 2.83603 1.50625 2.79236C1.40097 2.74869 1.31101 2.67477 1.24776 2.57995C1.18451 2.48513 1.15081 2.37368 1.15092 2.2597C1.15092 1.94263 1.40873 1.68424 1.72638 1.68424ZM1.72638 9.74068C1.57821 9.73406 1.43831 9.67053 1.3358 9.56334C1.2333 9.45614 1.17609 9.31354 1.17609 9.16522C1.17609 9.01691 1.2333 8.8743 1.3358 8.76711C1.43831 8.65992 1.57821 8.59639 1.72638 8.58976C1.87455 8.59639 2.01445 8.65992 2.11696 8.76711C2.21946 8.8743 2.27667 9.01691 2.27667 9.16522C2.27667 9.31354 2.21946 9.45614 2.11696 9.56334C2.01445 9.67053 1.87455 9.73406 1.72638 9.74068ZM8.6319 9.74068C8.48373 9.73406 8.34383 9.67053 8.24132 9.56334C8.13881 9.45614 8.0816 9.31354 8.0816 9.16522C8.0816 9.01691 8.13881 8.8743 8.24132 8.76711C8.34383 8.65992 8.48373 8.59639 8.6319 8.58976C8.78007 8.59639 8.91997 8.65992 9.02248 8.76711C9.12498 8.8743 9.18219 9.01691 9.18219 9.16522C9.18219 9.31354 9.12498 9.45614 9.02248 9.56334C8.91997 9.67053 8.78007 9.73406 8.6319 9.74068Z" fill="white"/>
</svg>
