<svg width="21" height="18" viewBox="0 0 21 18" fill="none" xmlns="http://www.w3.org/2000/svg">
<path d="M17.194 9.88586H15.6788C15.8333 10.3087 15.9177 10.765 15.9177 11.2407V16.9673C15.9177 17.1656 15.8831 17.356 15.8203 17.533H18.3253C19.2611 17.533 20.0223 16.7717 20.0223 15.836V12.7141C20.0224 11.1546 18.7536 9.88586 17.194 9.88586Z" fill="#145CE6"/>
<path d="M4.53439 11.2408C4.53439 10.7651 4.61877 10.3088 4.77321 9.88599H3.258C1.69847 9.88599 0.429688 11.1548 0.429688 12.7143V15.8362C0.429688 16.7719 1.19093 17.5331 2.12667 17.5331H4.6317C4.56891 17.356 4.53439 17.1657 4.53439 16.9674V11.2408Z" fill="#145CE6"/>
<path d="M11.958 8.41248H8.49396C6.93443 8.41248 5.66565 9.68125 5.66565 11.2408V16.9674C5.66565 17.2798 5.9189 17.5331 6.23131 17.5331H14.2206C14.533 17.5331 14.7863 17.2798 14.7863 16.9674V11.2408C14.7863 9.68125 13.5175 8.41248 11.958 8.41248Z" fill="#145CE6"/>
<path d="M10.226 0.913086C8.35044 0.913086 6.82458 2.43894 6.82458 4.31452C6.82458 5.5867 7.52675 6.69778 8.5637 7.28113C9.05555 7.5578 9.62259 7.71592 10.226 7.71592C10.8294 7.71592 11.3964 7.5578 11.8883 7.28113C12.9253 6.69778 13.6274 5.58667 13.6274 4.31452C13.6274 2.43898 12.1015 0.913086 10.226 0.913086Z" fill="#145CE6"/>
<path d="M4.25327 4.0835C2.85059 4.0835 1.70947 5.22462 1.70947 6.62729C1.70947 8.02997 2.85059 9.17109 4.25327 9.17109C4.60907 9.17109 4.94789 9.09738 5.25567 8.9649C5.78781 8.7358 6.22658 8.33025 6.49808 7.82225C6.68865 7.46572 6.79706 7.05898 6.79706 6.62729C6.79706 5.22465 5.65594 4.0835 4.25327 4.0835Z" fill="#145CE6"/>
<path d="M16.1988 4.0835C14.7961 4.0835 13.655 5.22462 13.655 6.62729C13.655 7.05902 13.7634 7.46576 13.954 7.82225C14.2255 8.33029 14.6643 8.73584 15.1964 8.9649C15.5042 9.09738 15.843 9.17109 16.1988 9.17109C17.6015 9.17109 18.7426 8.02997 18.7426 6.62729C18.7426 5.22462 17.6015 4.0835 16.1988 4.0835Z" fill="#145CE6"/>
</svg>
