<svg width="21" height="18" viewBox="0 0 21 18" fill="none" xmlns="http://www.w3.org/2000/svg">
<path d="M5.433 4.42407C5.33807 4.42407 5.26111 4.50104 5.26111 4.59596V5.68869H8.8536V4.59592C8.8536 4.501 8.77667 4.42407 8.68175 4.42407H5.433Z" fill="#145CE6"/>
<path d="M12.2077 4.42407C12.1127 4.42407 12.0358 4.50104 12.0358 4.59596V5.68869H15.6283V4.59596C15.6283 4.50104 15.5513 4.42411 15.4564 4.42411H12.2077V4.42407Z" fill="#145CE6"/>
<path d="M4.11064 5.67735V4.59587C4.11064 3.86674 4.70384 3.27354 5.43297 3.27354H8.68172C9.41085 3.27354 10.004 3.86674 10.004 4.59587V5.67735H10.8854V4.59587C10.8854 3.86674 11.4786 3.27354 12.2077 3.27354H15.4564C16.1856 3.27354 16.7788 3.86674 16.7788 4.59587V5.67735H17.6944C17.873 5.67735 18.0474 5.69547 18.2161 5.72979V2.20105C18.2161 1.44173 17.6005 0.826172 16.8413 0.826172H4.04818C3.28886 0.826172 2.67334 1.44173 2.67334 2.20105V5.72979C2.84196 5.6955 3.01643 5.67735 3.19504 5.67735H4.11064Z" fill="#145CE6"/>
<path d="M19.4521 9.24292H1.43729C1.04362 9.24292 0.724487 9.56205 0.724487 9.95572V14.6277C0.724487 15.0214 1.04362 15.3405 1.43729 15.3405H19.4521C19.8458 15.3405 20.1649 15.0214 20.1649 14.6277V9.95572C20.1649 9.56205 19.8458 9.24292 19.4521 9.24292Z" fill="#145CE6"/>
<path d="M17.6943 6.82788H3.19494C2.45438 6.82788 1.84276 7.37844 1.74609 8.0925H19.1432C19.0465 7.37844 18.4349 6.82788 17.6943 6.82788Z" fill="#145CE6"/>
<path d="M1.43689 16.4908V16.8709C1.43689 17.1886 1.69444 17.4461 2.01213 17.4461C2.32982 17.4461 2.58737 17.1886 2.58737 16.8709V16.4909H1.43731C1.43716 16.4908 1.43704 16.4908 1.43689 16.4908Z" fill="#145CE6"/>
<path d="M18.302 16.4909V16.8709C18.302 17.1886 18.5596 17.4461 18.8772 17.4461C19.1949 17.4461 19.4525 17.1886 19.4525 16.8709V16.4908C19.4523 16.4908 19.4522 16.4908 19.4521 16.4908H18.302V16.4909Z" fill="#145CE6"/>
</svg>
