<svg width="23" height="23" viewBox="0 0 23 23" fill="none" xmlns="http://www.w3.org/2000/svg">
<path d="M20.5416 15.6519C20.2332 15.4825 19.846 15.5951 19.6767 15.9034C19.5073 16.2117 19.6199 16.599 19.9282 16.7683C20.6869 17.1851 21.1221 17.6472 21.1221 18.0361C21.1221 18.5117 20.4482 19.2488 18.5568 19.8914C16.6883 20.5263 14.1912 20.8759 11.5256 20.8759C8.86007 20.8759 6.36299 20.5263 4.49444 19.8914C2.60305 19.2489 1.92917 18.5117 1.92917 18.0361C1.92917 17.6472 2.36432 17.1851 3.12304 16.7683C3.43136 16.5989 3.54397 16.2117 3.37458 15.9034C3.2052 15.5951 2.81807 15.4824 2.50967 15.6518C1.66374 16.1166 0.655304 16.9075 0.655304 18.0361C0.655304 18.9012 1.25028 20.1346 4.08464 21.0976C6.08172 21.7761 8.72431 22.1498 11.5256 22.1498C14.3269 22.1498 16.9695 21.7761 18.9666 21.0976C21.801 20.1346 22.396 18.9012 22.396 18.0361C22.396 16.9075 21.3875 16.1166 20.5416 15.6519Z" fill="#4A4A4A"/>
<path d="M6.71688 18.9706C8.00985 19.3358 9.71764 19.537 11.5256 19.537C13.3336 19.537 15.0414 19.3359 16.3344 18.9706C17.9162 18.5237 18.7183 17.8769 18.7183 17.0481C18.7183 16.2193 17.9162 15.5725 16.3344 15.1257C15.9832 15.0265 15.6013 14.9395 15.1953 14.8652C14.9748 15.2462 14.7438 15.6383 14.5022 16.0418C14.9516 16.1092 15.3736 16.1919 15.7567 16.2895C16.9209 16.586 17.3462 16.9198 17.4336 17.0481C17.3461 17.1765 16.9209 17.5103 15.7568 17.8068C14.6549 18.0874 13.2373 18.2475 11.7442 18.2618C11.6719 18.2671 11.599 18.2702 11.5256 18.2702C11.4522 18.2702 11.3794 18.2671 11.307 18.2618C9.81394 18.2475 8.3963 18.0874 7.29445 17.8068C6.1303 17.5103 5.70504 17.1765 5.61761 17.0481C5.70504 16.9198 6.13035 16.586 7.29449 16.2895C7.67767 16.1919 8.09962 16.1092 8.54908 16.0418C8.30751 15.6384 8.07647 15.2462 7.85597 14.8652C7.44994 14.9395 7.068 15.0265 6.71688 15.1257C5.13503 15.5725 4.33296 16.2193 4.33296 17.0481C4.33296 17.8769 5.13503 18.5237 6.71688 18.9706Z" fill="#4A4A4A"/>
<path d="M11.5256 16.9962C12.0926 16.9962 12.6077 16.7073 12.9035 16.2234C14.976 12.8325 17.4466 8.3635 17.4466 6.32995C17.4466 3.06515 14.7905 0.409058 11.5256 0.409058C8.2608 0.409058 5.60471 3.06515 5.60471 6.32995C5.60471 8.3635 8.07528 12.8325 10.1478 16.2234C10.4436 16.7073 10.9587 16.9962 11.5256 16.9962ZM9.14576 5.92341C9.14576 4.6112 10.2134 3.54362 11.5256 3.54362C12.8379 3.54362 13.9055 4.6112 13.9055 5.92341C13.9055 7.23566 12.8379 8.30325 11.5256 8.30325C10.2134 8.30325 9.14576 7.23571 9.14576 5.92341Z" fill="#4A4A4A"/>
</svg>
