<svg width="47" height="47" viewBox="0 0 47 47" fill="none" xmlns="http://www.w3.org/2000/svg">
<path d="M44.2786 0.027832H3.01816C2.33921 0.0281064 1.68816 0.297937 1.20807 0.778021C0.72799 1.25811 0.45816 1.90916 0.457886 2.5881V43.8485C0.45816 44.5275 0.72799 45.1785 1.20807 45.6586C1.68816 46.1387 2.33921 46.4085 3.01816 46.4088H23.6484V28.1877H18.1044V21.5619H23.6484V16.2819C23.6484 10.2917 27.803 7.03053 33.1544 7.03053C35.7147 7.03053 38.4685 7.22309 39.1083 7.30799V13.5642H34.845C31.9338 13.5642 31.3789 14.9412 31.3789 16.9703V21.5619H38.3153L37.4094 28.1877H31.3789V46.4088H44.2786C44.9575 46.4085 45.6086 46.1387 46.0887 45.6586C46.5688 45.1785 46.8386 44.5275 46.8389 43.8485V2.5881C46.8386 1.90916 46.5688 1.25811 46.0887 0.778021C45.6086 0.297937 44.9575 0.0281064 44.2786 0.027832Z" fill="white"/>
</svg>
