<svg width="48" height="47" viewBox="0 0 48 47" fill="none" xmlns="http://www.w3.org/2000/svg">
<path d="M46.5906 0.772022C46.2519 0.433344 45.8224 0.1998 45.354 0.0995076C44.8857 -0.000785138 44.3983 0.0364485 43.9506 0.206726L2.53502 15.8828H2.52673C2.04921 16.0665 1.64002 16.3931 1.35506 16.818C1.07009 17.243 0.923243 17.7455 0.934569 18.257C0.945896 18.7685 1.11484 19.2641 1.41834 19.676C1.72183 20.0879 2.14508 20.3961 2.63027 20.5584L2.67271 20.5719L16.8875 26.6421C17.1648 26.7262 17.4593 26.7362 17.7416 26.671C18.0239 26.6058 18.2842 26.4676 18.4964 26.2704L41.3105 5.01174C41.3785 4.94376 41.4592 4.88983 41.548 4.85304C41.6368 4.81625 41.732 4.79732 41.8282 4.79732C41.9243 4.79732 42.0195 4.81625 42.1083 4.85304C42.1971 4.88983 42.2778 4.94376 42.3458 5.01174C42.4138 5.07972 42.4677 5.16043 42.5045 5.24925C42.5413 5.33807 42.5602 5.43327 42.5602 5.52941C42.5602 5.62555 42.5413 5.72075 42.5045 5.80957C42.4677 5.89839 42.4138 5.9791 42.3458 6.04708L21.0868 28.8515C20.8895 29.0637 20.7514 29.324 20.6862 29.6063C20.6209 29.8887 20.6309 30.1831 20.7151 30.4604L26.7872 44.6839C26.7934 44.7046 26.7996 44.7233 26.8068 44.7429C27.1381 45.7027 27.9767 46.3798 28.9903 46.4254H29.0938C29.6055 46.4283 30.1063 46.2772 30.5309 45.9917C30.9556 45.7063 31.2846 45.2996 31.4751 44.8247L47.1486 3.41939C47.3213 2.97137 47.3605 2.48292 47.2615 2.01309C47.1625 1.54327 46.9294 1.1122 46.5906 0.772022Z" fill="white"/>
</svg>
