<svg width="47" height="47" viewBox="0 0 47 47" fill="none" xmlns="http://www.w3.org/2000/svg">
<path d="M33.3086 4.50787C35.8504 4.51546 38.286 5.52856 40.0833 7.32591C41.8807 9.12325 42.8938 11.5588 42.9013 14.1006V33.2841C42.8938 35.8259 41.8807 38.2614 40.0833 40.0588C38.286 41.8561 35.8504 42.8692 33.3086 42.8768H14.1252C11.5833 42.8692 9.14779 41.8561 7.35044 40.0588C5.5531 38.2614 4.54 35.8259 4.53241 33.2841V14.1006C4.54 11.5588 5.5531 9.12325 7.35044 7.32591C9.14779 5.52856 11.5833 4.51546 14.1252 4.50787H33.3086ZM33.3086 0.671387H14.1252C6.73892 0.671387 0.695923 6.71439 0.695923 14.1006V33.2841C0.695923 40.6703 6.73892 46.7133 14.1252 46.7133H33.3086C40.6948 46.7133 46.7378 40.6703 46.7378 33.2841V14.1006C46.7378 6.71439 40.6948 0.671387 33.3086 0.671387Z" fill="white"/>
<path d="M36.1866 14.1002C35.6174 14.1002 35.0611 13.9314 34.5879 13.6152C34.1146 13.299 33.7458 12.8496 33.528 12.3238C33.3102 11.798 33.2532 11.2194 33.3643 10.6612C33.4753 10.103 33.7494 9.59025 34.1518 9.18781C34.5542 8.78536 35.067 8.5113 35.6252 8.40026C36.1834 8.28923 36.762 8.34622 37.2878 8.56402C37.8136 8.78182 38.263 9.15065 38.5792 9.62387C38.8954 10.0971 39.0642 10.6535 39.0642 11.2226C39.065 11.6007 38.9911 11.9753 38.8468 12.3248C38.7025 12.6743 38.4906 12.9918 38.2232 13.2592C37.9558 13.5266 37.6383 13.7385 37.2888 13.8828C36.9393 14.0271 36.5647 14.101 36.1866 14.1002Z" fill="white"/>
<path d="M23.7169 16.0185C25.2347 16.0185 26.7184 16.4686 27.9803 17.3118C29.2423 18.155 30.2259 19.3535 30.8067 20.7558C31.3876 22.158 31.5395 23.701 31.2434 25.1896C30.9473 26.6782 30.2165 28.0456 29.1432 29.1188C28.07 30.192 26.7026 30.9229 25.214 31.219C23.7254 31.5151 22.1824 31.3632 20.7802 30.7823C19.378 30.2015 18.1794 29.2179 17.3362 27.9559C16.493 26.6939 16.0429 25.2103 16.0429 23.6925C16.0451 21.6579 16.8543 19.7072 18.293 18.2686C19.7317 16.8299 21.6823 16.0207 23.7169 16.0185ZM23.7169 12.182C21.4403 12.182 19.2149 12.8571 17.322 14.1219C15.4291 15.3867 13.9538 17.1843 13.0826 19.2876C12.2114 21.3909 11.9835 23.7053 12.4276 25.9381C12.8717 28.1709 13.968 30.2218 15.5778 31.8316C17.1875 33.4414 19.2385 34.5377 21.4713 34.9818C23.7041 35.4259 26.0185 35.198 28.1218 34.3268C30.225 33.4556 32.0227 31.9802 33.2875 30.0874C34.5523 28.1945 35.2274 25.969 35.2274 23.6925C35.2274 20.6397 34.0147 17.712 31.856 15.5533C29.6974 13.3947 26.7697 12.182 23.7169 12.182Z" fill="white"/>
</svg>
