<svg width="7" height="12" viewBox="0 0 7 12" fill="none" xmlns="http://www.w3.org/2000/svg">
<path fill-rule="evenodd" clip-rule="evenodd" d="M6.12829 0.44224C6.16659 0.480444 6.19698 0.525829 6.21771 0.575796C6.23845 0.625762 6.24912 0.679328 6.24912 0.733425C6.24912 0.787523 6.23845 0.841089 6.21771 0.891055C6.19698 0.941021 6.16659 0.986407 6.12829 1.02461L1.48331 5.66877L6.12829 10.3129C6.20552 10.3902 6.24891 10.4949 6.24891 10.6041C6.24891 10.7133 6.20552 10.8181 6.12829 10.8953C6.05107 10.9725 5.94632 11.0159 5.83711 11.0159C5.72789 11.0159 5.62315 10.9725 5.54592 10.8953L0.610574 5.95996C0.572274 5.92175 0.541886 5.87637 0.521152 5.8264C0.500418 5.77643 0.489746 5.72287 0.489746 5.66877C0.489746 5.61467 0.500418 5.56111 0.521152 5.51114C0.541886 5.46118 0.572274 5.41579 0.610574 5.37759L5.54592 0.44224C5.58413 0.403939 5.62951 0.373551 5.67948 0.352817C5.72944 0.332084 5.78301 0.321411 5.83711 0.321411C5.8912 0.321411 5.94477 0.332084 5.99474 0.352817C6.0447 0.373551 6.09009 0.403939 6.12829 0.44224Z" fill="#999999"/>
</svg>
