<svg width="26" height="22" viewBox="0 0 26 22" fill="none" xmlns="http://www.w3.org/2000/svg">
<path d="M2.34603 12.4265C2.44793 12.443 2.55105 12.4506 2.65422 12.4493L20.2226 12.4493L19.8396 12.6275C19.4651 12.8047 19.1244 13.0459 18.8328 13.3402L13.9062 18.2668C13.2574 18.8862 13.1484 19.8826 13.6479 20.6277C14.2292 21.4216 15.3441 21.594 16.1381 21.0126C16.2023 20.9656 16.2632 20.9144 16.3205 20.8593L25.2294 11.9504C25.9257 11.2549 25.9263 10.1268 25.2308 9.43056C25.2304 9.43012 25.2299 9.42962 25.2294 9.42917L16.3205 0.52027C15.6237 -0.174569 14.4956 -0.173011 13.8007 0.523776C13.746 0.578622 13.695 0.636975 13.6479 0.698447C13.1484 1.44351 13.2574 2.43991 13.9062 3.05931L18.8239 7.99484C19.0854 8.25654 19.3859 8.47597 19.7148 8.64519L20.2494 8.88573L2.75228 8.88573C1.84206 8.85193 1.04349 9.48775 0.872497 10.3824C0.714976 11.3538 1.37468 12.2689 2.34603 12.4265Z" fill="#fff"/>
</svg>
