<svg width="25" height="22" viewBox="0 0 25 22" fill="none" xmlns="http://www.w3.org/2000/svg">
<path d="M23.406 8.93047C23.3041 8.91394 23.201 8.90631 23.0978 8.90764L5.52938 8.90764L5.91246 8.72947C6.28692 8.55223 6.62757 8.31103 6.91917 8.01675L11.8458 3.09013C12.4946 2.47074 12.6037 1.47433 12.1042 0.72927C11.5228 -0.0646798 10.4079 -0.237067 9.61389 0.344295C9.54975 0.391289 9.48878 0.442515 9.43148 0.497639L0.522577 9.40654C-0.173654 10.102 -0.174266 11.2301 0.521185 11.9264C0.52163 11.9268 0.522132 11.9273 0.522577 11.9278L9.43148 20.8367C10.1283 21.5315 11.2564 21.5299 11.9513 20.8332C12.006 20.7783 12.057 20.72 12.1042 20.6585C12.6037 19.9134 12.4946 18.917 11.8458 18.2976L6.92808 13.3621C6.66666 13.1004 6.36609 12.881 6.03719 12.7117L5.50265 12.4712L22.9997 12.4712C23.91 12.505 24.7085 11.8692 24.8795 10.9745C25.037 10.0032 24.3773 9.08805 23.406 8.93047Z" fill="#fff"/>
</svg>
